<svg id="visual" viewBox="0 0 900 600" width="900" height="600" xmlns="http://www.w3.org/2000/svg" xmlns:xlink="http://www.w3.org/1999/xlink" version="1.1"><rect width="900" height="600" fill="#001122"></rect><g><g transform="translate(320 432)"><path d="M0 -15.5L13.4 -7.8L13.4 7.8L0 15.5L-13.4 7.8L-13.4 -7.8Z" fill="none" stroke="#CCCCCC" stroke-width="2"></path></g><g transform="translate(466 242)"><path d="M0 -12L10.4 -6L10.4 6L0 12L-10.4 6L-10.4 -6Z" fill="none" stroke="#CCCCCC" stroke-width="2"></path></g><g transform="translate(730 343)"><path d="M0 -10L8.7 -5L8.7 5L0 10L-8.7 5L-8.7 -5Z" fill="none" stroke="#CCCCCC" stroke-width="2"></path></g><g transform="translate(425 54)"><path d="M0 -6L5.2 -3L5.2 3L0 6L-5.2 3L-5.2 -3Z" stroke="#CCCCCC" fill="none" stroke-width="2"></path></g><g transform="translate(828 357)"><path d="M0 -2L1.7 -1L1.7 1L0 2L-1.7 1L-1.7 -1Z" stroke="#CCCCCC" fill="none" stroke-width="2"></path></g><g transform="translate(601 173)"><path d="M0 -7L6.1 -3.5L6.1 3.5L0 7L-6.1 3.5L-6.1 -3.5Z" stroke="#CCCCCC" fill="none" stroke-width="2"></path></g><g transform="translate(739 239)"><path d="M0 -3L2.6 -1.5L2.6 1.5L0 3L-2.6 1.5L-2.6 -1.5Z" stroke="#CCCCCC" fill="none" stroke-width="2"></path></g><g transform="translate(98 232)"><path d="M0 -13L11.3 -6.5L11.3 6.5L0 13L-11.3 6.5L-11.3 -6.5Z" stroke="#CCCCCC" fill="none" stroke-width="2"></path></g><g transform="translate(855 74)"><path d="M0 -9L7.8 -4.5L7.8 4.5L0 9L-7.8 4.5L-7.8 -4.5Z" stroke="#CCCCCC" fill="none" stroke-width="2"></path></g><g transform="translate(612 51)"><path d="M0 -11L9.5 -5.5L9.5 5.5L0 11L-9.5 5.5L-9.5 -5.5Z" stroke="#CCCCCC" fill="none" stroke-width="2"></path></g><g transform="translate(42 388)"><path d="M0 -1L0.9 -0.5L0.9 0.5L0 1L-0.9 0.5L-0.9 -0.5Z" stroke="#CCCCCC" fill="none" stroke-width="2"></path></g><g transform="translate(732 203)"><path d="M0 -12L10.4 -6L10.4 6L0 12L-10.4 6L-10.4 -6Z" stroke="#CCCCCC" fill="none" stroke-width="2"></path></g><g transform="translate(140 172)"><path d="M0 -7L6.1 -3.5L6.1 3.5L0 7L-6.1 3.5L-6.1 -3.5Z" stroke="#CCCCCC" fill="none" stroke-width="2"></path></g><g transform="translate(544 487)"><path d="M0 -8L6.9 -4L6.9 4L0 8L-6.9 4L-6.9 -4Z" stroke="#CCCCCC" fill="none" stroke-width="2"></path></g><g transform="translate(520 172)"><path d="M0 -1L0.9 -0.5L0.9 0.5L0 1L-0.9 0.5L-0.9 -0.5Z" stroke="#CCCCCC" fill="none" stroke-width="2"></path></g><g transform="translate(738 495)"><path d="M0 -12L10.4 -6L10.4 6L0 12L-10.4 6L-10.4 -6Z" stroke="#CCCCCC" fill="none" stroke-width="2"></path></g><g transform="translate(818 465)"><path d="M0 -4L3.5 -2L3.5 2L0 4L-3.5 2L-3.5 -2Z" stroke="#CCCCCC" fill="none" stroke-width="2"></path></g><g transform="translate(645 305)"><path d="M0 -6L5.2 -3L5.2 3L0 6L-5.2 3L-5.2 -3Z" stroke="#CCCCCC" fill="none" stroke-width="2"></path></g><g transform="translate(175 105)"><path d="M0 -10L8.7 -5L8.7 5L0 10L-8.7 5L-8.7 -5Z" stroke="#CCCCCC" fill="none" stroke-width="2"></path></g><g transform="translate(54 254)"><path d="M0 -10L8.7 -5L8.7 5L0 10L-8.7 5L-8.7 -5Z" stroke="#CCCCCC" fill="none" stroke-width="2"></path></g><g transform="translate(660 530)"><path d="M0 -12L10.4 -6L10.4 6L0 12L-10.4 6L-10.4 -6Z" stroke="#CCCCCC" fill="none" stroke-width="2"></path></g><g transform="translate(232 78)"><path d="M0 -6L5.2 -3L5.2 3L0 6L-5.2 3L-5.2 -3Z" stroke="#CCCCCC" fill="none" stroke-width="2"></path></g><g transform="translate(672 98)"><path d="M0 -9L7.8 -4.5L7.8 4.5L0 9L-7.8 4.5L-7.8 -4.5Z" stroke="#CCCCCC" fill="none" stroke-width="2"></path></g><g transform="translate(79 538)"><path d="M0 -11L9.5 -5.5L9.5 5.5L0 11L-9.5 5.5L-9.5 -5.5Z" stroke="#CCCCCC" fill="none" stroke-width="2"></path></g><g transform="translate(450 154)"><path d="M0 -14L12.1 -7L12.1 7L0 14L-12.1 7L-12.1 -7Z" stroke="#CCCCCC" fill="none" stroke-width="2"></path></g><g transform="translate(680 243)"><path d="M0 -9L7.8 -4.5L7.8 4.5L0 9L-7.8 4.5L-7.8 -4.5Z" stroke="#CCCCCC" fill="none" stroke-width="2"></path></g><g transform="translate(707 582)"><path d="M0 -3L2.6 -1.5L2.6 1.5L0 3L-2.6 1.5L-2.6 -1.5Z" stroke="#CCCCCC" fill="none" stroke-width="2"></path></g><g transform="translate(786 547)"><path d="M0 -1L0.9 -0.5L0.9 0.5L0 1L-0.9 0.5L-0.9 -0.5Z" stroke="#CCCCCC" fill="none" stroke-width="2"></path></g><g transform="translate(111 449)"><path d="M0 -1L0.9 -0.5L0.9 0.5L0 1L-0.9 0.5L-0.9 -0.5Z" stroke="#CCCCCC" fill="none" stroke-width="2"></path></g><g transform="translate(31 209)"><path d="M0 -14L12.1 -7L12.1 7L0 14L-12.1 7L-12.1 -7Z" stroke="#CCCCCC" fill="none" stroke-width="2"></path></g><g transform="translate(359 185)"><path d="M0 -11L9.5 -5.5L9.5 5.5L0 11L-9.5 5.5L-9.5 -5.5Z" stroke="#CCCCCC" fill="none" stroke-width="2"></path></g><g transform="translate(289 95)"><path d="M0 -8L6.9 -4L6.9 4L0 8L-6.9 4L-6.9 -4Z" stroke="#CCCCCC" fill="none" stroke-width="2"></path></g><g transform="translate(557 253)"><path d="M0 -7L6.1 -3.5L6.1 3.5L0 7L-6.1 3.5L-6.1 -3.5Z" stroke="#CCCCCC" fill="none" stroke-width="2"></path></g><g transform="translate(657 341)"><path d="M0 -4L3.5 -2L3.5 2L0 4L-3.5 2L-3.5 -2Z" stroke="#CCCCCC" fill="none" stroke-width="2"></path></g><g transform="translate(866 150)"><path d="M0 -2L1.7 -1L1.7 1L0 2L-1.7 1L-1.7 -1Z" stroke="#CCCCCC" fill="none" stroke-width="2"></path></g><g transform="translate(822 109)"><path d="M0 -6L5.2 -3L5.2 3L0 6L-5.2 3L-5.2 -3Z" stroke="#CCCCCC" fill="none" stroke-width="2"></path></g><g transform="translate(223 438)"><path d="M0 -8L6.9 -4L6.9 4L0 8L-6.9 4L-6.9 -4Z" stroke="#CCCCCC" fill="none" stroke-width="2"></path></g><g transform="translate(289 401)"><path d="M0 -6L5.2 -3L5.2 3L0 6L-5.2 3L-5.2 -3Z" stroke="#CCCCCC" fill="none" stroke-width="2"></path></g><g transform="translate(223 277)"><path d="M0 -2L1.7 -1L1.7 1L0 2L-1.7 1L-1.7 -1Z" stroke="#CCCCCC" fill="none" stroke-width="2"></path></g><g transform="translate(842 398)"><path d="M0 -14L12.1 -7L12.1 7L0 14L-12.1 7L-12.1 -7Z" stroke="#CCCCCC" fill="none" stroke-width="2"></path></g><g transform="translate(700 202)"><path d="M0 -7L6.1 -3.5L6.1 3.5L0 7L-6.1 3.5L-6.1 -3.5Z" stroke="#CCCCCC" fill="none" stroke-width="2"></path></g><g transform="translate(336 238)"><path d="M0 -10L8.7 -5L8.7 5L0 10L-8.7 5L-8.7 -5Z" stroke="#CCCCCC" fill="none" stroke-width="2"></path></g><g transform="translate(344 74)"><path d="M0 -3L2.6 -1.5L2.6 1.5L0 3L-2.6 1.5L-2.6 -1.5Z" stroke="#CCCCCC" fill="none" stroke-width="2"></path></g><g transform="translate(290 538)"><path d="M0 -3L2.6 -1.5L2.6 1.5L0 3L-2.6 1.5L-2.6 -1.5Z" stroke="#CCCCCC" fill="none" stroke-width="2"></path></g><g transform="translate(256 182)"><path d="M0 -10L8.7 -5L8.7 5L0 10L-8.7 5L-8.7 -5Z" stroke="#CCCCCC" fill="none" stroke-width="2"></path></g><g transform="translate(312 378)"><path d="M0 -8L6.9 -4L6.9 4L0 8L-6.9 4L-6.9 -4Z" stroke="#CCCCCC" fill="none" stroke-width="2"></path></g></g></svg>